<?xml version="1.0" standalone="no"?>
<!DOCTYPE svg PUBLIC "-//W3C//DTD SVG 20010904//EN"
 "http://www.w3.org/TR/2001/REC-SVG-20010904/DTD/svg10.dtd">
<svg version="1.0" xmlns="http://www.w3.org/2000/svg"
 width="640.000000pt" height="640.000000pt" viewBox="0 0 640.000000 640.000000"
 preserveAspectRatio="xMidYMid meet">
<metadata>
Created by potrace 1.11, written by Peter Selinger 2001-2013
</metadata>
<g transform="translate(0.000000,640.000000) scale(0.100000,-0.100000)"
fill="#000000" stroke="none">
<path d="M4490 5745 c-243 -52 -441 -197 -553 -405 -29 -54 -55 -118 -63 -152
-1 -5 -3 -10 -4 -13 -3 -5 -3 -6 -13 -50 -15 -63 -23 -227 -12 -245 2 -3 0
-12 -4 -18 -4 -7 -5 -33 -1 -58 5 -32 3 -49 -6 -57 -19 -17 -54 -45 -169 -134
-119 -94 -250 -196 -287 -226 -14 -12 -41 -33 -59 -47 -37 -28 -146 -114 -170
-134 -9 -7 -47 -37 -85 -66 -38 -30 -100 -79 -139 -109 -38 -31 -74 -59 -80
-63 -5 -4 -22 -18 -37 -30 -15 -13 -46 -36 -68 -52 -22 -17 -40 -33 -40 -38 0
-4 -6 -8 -14 -8 -8 0 -16 -4 -18 -8 -3 -7 -19 -20 -93 -74 -5 -4 -30 -26 -55
-48 -25 -22 -48 -40 -52 -40 -4 0 -13 -6 -20 -13 -7 -7 -44 -37 -83 -67 -80
-63 -84 -66 -145 -114 -25 -20 -49 -40 -55 -44 -5 -4 -53 -41 -105 -82 -119
-93 -99 -78 -205 -161 -49 -39 -105 -83 -124 -97 -19 -15 -51 -40 -72 -57 -20
-16 -48 -38 -61 -48 -13 -10 -36 -29 -53 -42 -16 -13 -68 -54 -115 -91 -47
-36 -86 -70 -88 -75 -2 -5 -10 -9 -17 -9 -8 0 -18 -6 -22 -13 -4 -7 -24 -24
-43 -37 -19 -13 -40 -29 -46 -35 -6 -5 -26 -22 -45 -37 -19 -14 -50 -39 -70
-55 -20 -15 -51 -39 -69 -53 -28 -22 -319 -250 -360 -283 -8 -7 -35 -28 -60
-47 -25 -19 -47 -37 -50 -40 -3 -3 -34 -28 -70 -55 -36 -27 -70 -54 -76 -60
-7 -5 -25 -20 -40 -32 -136 -107 -193 -151 -209 -163 -120 -95 -171 -188 -161
-298 9 -113 67 -199 166 -249 69 -34 181 -39 245 -10 90 41 170 82 173 90 2 4
9 7 15 7 16 0 301 143 305 153 2 4 8 7 14 7 15 0 462 223 466 233 2 4 9 7 15
7 7 0 70 30 142 65 71 36 131 61 133 55 2 -5 7 -8 11 -5 8 4 49 5 223 5 47 0
90 0 95 1 4 1 13 1 18 0 13 -3 289 -3 301 0 5 1 14 1 19 0 6 -1 69 -2 141 -1
l131 0 27 -72 c15 -40 33 -89 41 -108 7 -19 27 -75 45 -125 18 -49 36 -99 41
-110 5 -11 38 -101 74 -200 80 -219 76 -209 77 -215 0 -3 5 -14 11 -25 6 -11
12 -27 13 -35 2 -8 7 -23 13 -35 5 -11 33 -84 61 -161 34 -93 60 -149 76 -163
30 -26 90 -36 129 -21 17 6 30 10 31 8 0 -2 7 2 15 8 8 7 30 15 49 19 19 4 41
11 50 16 8 5 38 18 65 29 59 24 84 60 80 116 -3 32 -80 262 -114 339 -5 11
-14 36 -21 55 -7 19 -16 44 -20 55 -10 24 -70 186 -74 200 -2 6 -6 17 -9 25
-3 8 -24 67 -47 130 -23 63 -45 124 -50 135 -5 11 -18 46 -29 77 l-20 57 32 3
c18 2 53 1 78 -3 26 -3 55 -2 65 1 10 4 30 4 44 0 14 -4 39 -4 55 0 17 3 41 4
55 0 14 -3 42 -3 63 1 39 7 67 -8 67 -35 0 -7 9 -31 20 -54 11 -22 20 -46 20
-51 0 -6 6 -25 14 -43 8 -18 29 -73 46 -123 18 -49 36 -99 41 -110 5 -11 38
-101 74 -200 80 -219 76 -209 77 -215 0 -3 5 -14 11 -25 6 -11 12 -27 13 -35
2 -8 7 -23 13 -35 5 -11 33 -84 62 -163 75 -208 97 -220 286 -152 166 59 189
73 203 125 7 24 9 54 5 66 -6 22 -52 149 -70 194 -4 11 -9 25 -10 30 -3 12
-62 170 -75 200 -9 22 -69 184 -74 200 -2 6 -6 19 -10 30 -5 11 -21 54 -36 95
-15 41 -45 120 -65 175 -20 55 -41 111 -47 125 -32 76 -31 77 30 96 32 9 62
20 67 24 6 4 39 17 75 31 36 13 96 40 134 61 38 21 71 38 74 38 10 0 221 146
272 189 158 132 334 334 422 486 22 36 112 208 113 215 1 3 9 23 19 45 19 42
73 201 81 238 2 12 9 42 16 67 14 58 17 76 24 125 4 22 8 54 11 70 7 38 15
225 14 290 -2 56 -2 49 2 128 2 31 0 57 -3 57 -3 0 -3 20 1 45 4 25 4 48 0 50
-4 3 -4 22 0 44 4 22 4 45 -1 52 -4 7 -6 16 -3 21 4 6 5 45 3 108 -1 20 0 179
0 209 1 34 -6 30 91 46 25 4 52 9 60 10 17 3 91 15 130 21 14 3 37 7 52 10 15
3 42 7 60 9 18 3 44 7 58 10 14 2 39 7 55 9 17 3 44 7 60 10 17 3 110 19 209
35 98 17 181 33 184 36 3 3 0 35 -7 72 -32 176 -188 349 -398 444 -38 17 -77
34 -88 39 -28 13 -162 49 -205 56 -19 3 -42 7 -50 10 -13 5 -264 16 -344 15
-28 0 -39 8 -85 64 -25 31 -120 108 -176 142 -60 38 -139 70 -220 90 -76 20
-263 24 -335 8z m251 -569 c81 -38 131 -115 135 -205 4 -92 -37 -168 -116
-217 -38 -23 -57 -28 -115 -28 -139 -1 -236 89 -241 223 -4 112 53 197 161
237 42 16 133 11 176 -10z"/>
</g>
</svg>
